<svg width="130" height="130" viewBox="0 0 130 130" fill="none" xmlns="http://www.w3.org/2000/svg">
<circle cx="65" cy="65" r="65" fill="#2483C5" fill-opacity="0.14"/>
<path d="M79.4325 63.7167C81.143 63.7167 82.8001 63.9038 84.4038 64.3048C83.3079 62.5407 81.8112 61.0172 80.0205 59.8412L78.9514 59.1465C74.8622 63.797 68.8754 66.7369 62.1937 66.7369C55.5119 66.7369 49.5251 63.8237 45.4091 59.1731L44.3667 59.8412C40.1439 62.5675 37.6316 67.1912 37.6316 72.1891V90.2566C37.6316 91.7533 38.8343 92.9293 40.3043 92.9293H58.7726C57.944 90.6308 57.5165 88.1987 57.5165 85.6328C57.5165 73.5522 67.352 63.7167 79.4325 63.7167Z" fill="#2483C5"/>
<path d="M62.1936 61.3915C71.5748 61.3915 79.192 53.7477 79.192 44.3665C79.192 34.9853 71.5748 27.3682 62.1936 27.3682C52.8125 27.3682 45.1686 34.9853 45.1686 44.3665C45.1686 53.7477 52.8125 61.3915 62.1936 61.3915Z" fill="#2483C5"/>
<circle cx="78.7911" cy="85.308" r="18.8158" fill="white"/>
<path d="M82.0671 76.3623C82.0671 75.6351 81.4801 75.0481 80.7529 75.0547H76.8368C76.1097 75.0547 75.5226 75.6418 75.5226 76.3623V76.5424H82.0671V76.3623Z" fill="#2483C5"/>
<path d="M71.881 93.1729C71.881 94.3404 72.8284 95.2877 73.9958 95.2877H83.736C84.9035 95.2877 85.8508 94.3404 85.8508 93.1729V83.4395H71.881V93.1729ZM81.4677 85.8144C81.4677 85.5209 81.7079 85.2807 82.0014 85.2807C82.295 85.2807 82.5351 85.5209 82.5351 85.8144V92.4591C82.5351 92.7526 82.295 92.9928 82.0014 92.9928C81.7079 92.9928 81.4677 92.7526 81.4677 92.4591V85.8144ZM78.3255 85.8144C78.3255 85.5209 78.5657 85.2807 78.8592 85.2807C79.1528 85.2807 79.3929 85.5209 79.3929 85.8144V92.4591C79.3929 92.7526 79.1528 92.9928 78.8592 92.9928C78.5657 92.9928 78.3255 92.7526 78.3255 92.4591V85.8144ZM75.19 85.8144C75.19 85.5209 75.4302 85.2807 75.7237 85.2807C76.0173 85.2807 76.2574 85.5209 76.2574 85.8144V92.4591C76.2574 92.7526 76.0173 92.9928 75.7237 92.9928C75.4302 92.9928 75.19 92.7526 75.19 92.4591V85.8144Z" fill="#2483C5"/>
<path d="M71.7395 77.3711H85.8427C86.6699 77.3711 87.3437 78.0449 87.3437 78.8721V81.1204C87.3437 81.9476 86.6699 82.6214 85.8427 82.6214H71.7395C70.9123 82.6214 70.2385 81.9476 70.2385 81.1204V78.8721C70.2451 78.0382 70.9123 77.3711 71.7395 77.3711Z" fill="#2483C5"/>
</svg>
