<svg width="18" height="18" viewBox="0 0 18 18" fill="none" xmlns="http://www.w3.org/2000/svg">
<g clip-path="url(#clip0_257_9210)">
<path d="M12.75 18.0342H2.25C1.00951 18.0342 0 17.0247 0 15.7842V5.28418C0 4.04369 1.00951 3.03418 2.25 3.03418H8.25005C8.66478 3.03418 9 3.37022 9 3.78427C9 4.19818 8.66478 4.53423 8.25005 4.53423H2.25C1.83595 4.53423 1.50005 4.87096 1.50005 5.28418V15.7842C1.50005 16.1974 1.83595 16.5342 2.25 16.5342H12.75C13.164 16.5342 13.5 16.1974 13.5 15.7842V9.78418C13.5 9.37027 13.8352 9.03423 14.25 9.03423C14.6647 9.03423 15 9.37027 15 9.78418V15.7842C15 17.0247 13.9905 18.0342 12.75 18.0342Z" fill="#2483C5"/>
<path d="M12.9655 2.41699L7.03136 8.35098C6.9789 8.40344 6.94361 8.47018 6.92864 8.54214L6.39841 11.1942C6.37369 11.3172 6.4127 11.4439 6.50114 11.5332C6.57241 11.6044 6.6684 11.6426 6.76673 11.6426C6.79062 11.6426 6.81548 11.6404 6.8402 11.6352L9.49148 11.105C9.56495 11.0899 9.63169 11.0547 9.68346 11.0021L15.6175 5.06813L12.9655 2.41699Z" fill="#2483C5"/>
<path d="M17.4504 0.582638C16.7193 -0.14864 15.5298 -0.14864 14.7992 0.582638L13.7612 1.62057L16.4125 4.27185L17.4504 3.23378C17.8045 2.88057 17.9995 2.40953 17.9995 1.90855C17.9995 1.40757 17.8045 0.936535 17.4504 0.582638Z" fill="#2483C5"/>
</g>
<defs>
<clipPath id="clip0_257_9210">
<rect width="18" height="18" fill="white"/>
</clipPath>
</defs>
</svg>
