<svg width="11" height="11" viewBox="0 0 11 11" fill="none" xmlns="http://www.w3.org/2000/svg">
<g clip-path="url(#clip0_257_9204)">
<path d="M8.13831 10.4298C9.48629 10.4298 10.5972 9.41541 10.7498 8.1084H5.52686C5.67945 9.41541 6.79034 10.4298 8.13831 10.4298Z" fill="#2483C5"/>
<path d="M5.52734 7.49227H10.7502C10.5976 6.18525 9.48676 5.1709 8.13878 5.1709C6.7908 5.1709 5.67994 6.18525 5.52734 7.49227Z" fill="#2483C5"/>
<path d="M5.14109 6.55417L2.77442 4.1875L1.02017 5.94176C-0.00672176 6.96864 -0.00672176 8.63356 1.02017 9.66044C2.04705 10.6873 3.71197 10.6873 4.73885 9.66044L5.20586 9.19344C5.00519 8.77148 4.89274 8.29944 4.89274 7.80109C4.89274 7.35925 4.98118 6.93809 5.14109 6.55417Z" fill="#2483C5"/>
<path d="M8.13831 4.55485C8.54262 4.55485 8.92954 4.62899 9.28656 4.76406C9.62431 3.83393 9.42036 2.75142 8.67444 2.00552C7.64755 0.97863 5.98264 0.97863 4.95575 2.00552L3.20996 3.75131L5.44593 5.98726C6.02911 5.12311 7.01733 4.55485 8.13831 4.55485Z" fill="#2483C5"/>
</g>
<defs>
<clipPath id="clip0_257_9204">
<rect width="10.5" height="10.5" fill="white" transform="translate(0.25 0.25)"/>
</clipPath>
</defs>
</svg>
