<svg width="94" height="93" viewBox="0 0 94 93" fill="none" xmlns="http://www.w3.org/2000/svg">
<g clip-path="url(#clip0_247_4849)">
<path d="M71.4643 38.8087H54.3208V51.5088H71.4643V59.1144L91.5074 45.1587L71.4643 31.2031V38.8087Z" fill="white"/>
<path d="M32.8004 88.0749L9.20348 80.872C5.37055 79.7019 2.75122 76.1591 2.75122 72.1443V13.4961C2.75122 7.36822 8.66081 2.98252 14.5114 4.76837L38.1083 11.9713C41.9414 13.1414 44.5606 16.6843 44.5606 20.699V79.3472C44.5606 85.4753 38.6511 89.861 32.8004 88.0749Z" fill="#2483C5"/>
<path d="M92.5425 43.6813L72.4992 29.7258C71.9483 29.342 71.229 29.2959 70.6333 29.6072C70.0376 29.9183 69.6643 30.5345 69.6643 31.2064V37.0079H66.1312V13.4843C66.1312 7.46335 61.233 2.56511 55.2123 2.56511H12.0638C9.68799 2.5128 7.35172 3.24615 5.37283 4.71106C2.56029 6.79314 0.947266 9.99626 0.947266 13.499V72.1472C0.947266 76.9883 4.05369 81.189 8.67699 82.6004L32.2737 89.8033C33.3356 90.1273 34.416 90.287 35.4864 90.287C37.7799 90.287 40.0265 89.5542 41.9394 88.1381C44.088 86.5475 45.5365 84.3027 46.1006 81.77H55.2123C61.233 81.77 66.1312 76.8717 66.1312 70.8508V53.3158H69.6643V59.1173C69.6643 59.7892 70.0376 60.4054 70.6333 60.7164C70.896 60.8537 71.1824 60.9214 71.4682 60.9214C71.8305 60.9214 72.1911 60.8124 72.4992 60.5979L92.5425 46.6424C93.027 46.305 93.3157 45.752 93.3157 45.1618C93.3157 44.5715 93.0269 44.0187 92.5425 43.6813ZM42.7566 79.3503C42.7566 81.6976 41.6761 83.8437 39.7923 85.2383C37.9156 86.6276 35.5593 87.0339 33.3271 86.3525L9.73038 79.1494C6.63496 78.2048 4.55541 75.3908 4.55541 72.1474V13.499C4.55541 11.1518 5.63587 9.00565 7.51968 7.6111C9.39645 6.22161 11.7529 5.81533 13.9849 6.49691L37.5818 13.6998C40.6771 14.6446 42.7568 17.4584 42.7568 20.702V79.3503H42.7566ZM62.5231 70.8508C62.5231 74.8822 59.2435 78.1618 55.2123 78.1618H46.3647V20.702C46.3647 15.8609 43.2583 11.6602 38.635 10.2488L25.2833 6.17326H55.2121C59.2435 6.17326 62.5229 9.45288 62.5229 13.4843V37.0077H54.3248C53.3286 37.0077 52.5208 37.8154 52.5208 38.8118V51.5117C52.5208 52.5081 53.3286 53.3158 54.3248 53.3158H62.5229V70.8508H62.5231ZM73.2725 55.6631V51.5119C73.2725 50.5155 72.4646 49.7078 71.4684 49.7078H56.1291V40.616H71.4684C72.4646 40.616 73.2725 39.8084 73.2725 38.812V34.6608L88.3543 45.1619L73.2725 55.6631Z" fill="#2483C5"/>
<path d="M36.3805 49.8109C35.3841 49.8109 34.5764 49.0032 34.5764 48.0068V42.3119C34.5764 41.3155 35.3841 40.5078 36.3805 40.5078C37.3769 40.5078 38.1846 41.3155 38.1846 42.3119V48.0068C38.1846 49.0032 37.3769 49.8109 36.3805 49.8109Z" fill="white"/>
</g>
<defs>
<clipPath id="clip0_247_4849">
<rect width="92.3684" height="92.3684" fill="white" transform="translate(0.947266 0.237305)"/>
</clipPath>
</defs>
</svg>
