<svg width="12" height="12" viewBox="0 0 12 12" fill="none" xmlns="http://www.w3.org/2000/svg">
<path fill-rule="evenodd" clip-rule="evenodd" d="M7.52389 9.53301C7.23376 9.70328 7.02256 9.27536 7.16455 9.06868C7.97807 8.452 8.46146 7.32114 7.58387 6.23734C7.52953 6.02114 7.68332 5.75396 7.89297 5.80269C8.79312 6.28887 9.15502 8.56122 7.52389 9.53245V9.53301Z" fill="#F10000"/>
<path fill-rule="evenodd" clip-rule="evenodd" d="M5.9807 11.9994C2.33435 11.8772 1.25774 9.06181 1.39639 7.10302C1.57481 5.08923 3.37616 3.66319 4.06389 2.45214C4.59971 1.50885 4.82343 -0.0482926 6.01108 0.00114939C7.19872 -0.0482926 7.39593 1.51107 7.93617 2.45269C8.64489 3.68763 10.4252 5.08979 10.6037 7.10358C10.7423 9.06237 9.69388 11.9406 5.9807 12V11.9994ZM6.00611 1.35442C6.51155 3.57042 9.43867 5.68365 9.33538 7.66688C9.36023 9.28402 7.74393 10.7162 6.01936 10.7006H5.9807C4.23845 10.7373 2.63983 9.28402 2.66468 7.66688C2.56139 5.68365 5.48851 3.57042 5.99395 1.35442" fill="#F10000"/>
<path fill-rule="evenodd" clip-rule="evenodd" d="M7.48126 5.47542C7.10063 5.70908 6.3921 5.09888 6.59575 4.85077C6.92304 4.44432 7.76491 5.06896 7.48126 5.47542Z" fill="#F10000"/>
</svg>
